<?xml version="1.0" encoding="UTF-8" standalone="no"?>
<!-- Created with Inkscape (http://www.inkscape.org/) -->

<svg
   width="445mm"
   height="361mm"
   viewBox="0 0 445 361"
   version="1.1"
   id="svg5"
   inkscape:version="1.1 (c68e22c387, 2021-05-23)"
   sodipodi:docname="рисунок.svg"
   xmlns:inkscape="http://www.inkscape.org/namespaces/inkscape"
   xmlns:sodipodi="http://sodipodi.sourceforge.net/DTD/sodipodi-0.dtd"
   xmlns="http://www.w3.org/2000/svg"
   xmlns:svg="http://www.w3.org/2000/svg">
  <sodipodi:namedview
     id="namedview7"
     pagecolor="#ffffff"
     bordercolor="#666666"
     borderopacity="1.0"
     inkscape:pageshadow="2"
     inkscape:pageopacity="0.0"
     inkscape:pagecheckerboard="0"
     inkscape:document-units="mm"
     showgrid="false"
     height="371mm"
     inkscape:zoom="0.26205012"
     inkscape:cx="887.23484"
     inkscape:cy="1410.0356"
     inkscape:window-width="1920"
     inkscape:window-height="1017"
     inkscape:window-x="-8"
     inkscape:window-y="-8"
     inkscape:window-maximized="1"
     inkscape:current-layer="layer1"
     width="401mm" />
  <defs
     id="defs2">
    <inkscape:path-effect
       effect="spiro"
       id="path-effect2598"
       is_visible="true"
       lpeversion="1" />
    <inkscape:path-effect
       effect="spiro"
       id="path-effect2594"
       is_visible="true"
       lpeversion="1" />
  </defs>
  <g
     inkscape:label="Слой 1"
     inkscape:groupmode="layer"
     id="layer1">
    <rect
       style="fill:#333333;stroke-width:1.465"
       id="rect1876"
       width="199.90385"
       height="339.12259"
       x="8.4493551"
       y="10.224028"
       rx="21.895012" />
    <rect
       style="fill:#999999;stroke-width:1.00672"
       id="rect2308-1-2"
       width="142.78845"
       height="12.13702"
       x="34.31089"
       y="105.86746"
       rx="21.895012" />
    <rect
       style="fill:#999999;stroke-width:0.606185"
       id="rect2308-1-2-5"
       width="84.386208"
       height="7.4460807"
       x="-248.10748"
       y="38.791893"
       rx="12.939682"
       transform="rotate(-90)" />
    <rect
       style="fill:#999999;stroke-width:0.636535"
       id="rect2308-1-2-5-6"
       width="84.386208"
       height="8.2103376"
       x="-248.10748"
       y="54.103912"
       rx="12.939682"
       transform="rotate(-90)" />
    <rect
       style="fill:#999999;stroke-width:0.60823"
       id="rect2308-1-2-5-6-7"
       width="84.386208"
       height="7.4963951"
       x="-247.83597"
       y="70.818657"
       rx="12.939682"
       transform="rotate(-90)" />
    <rect
       style="fill:#666666;stroke-width:1.60564"
       id="rect846"
       width="281.29327"
       height="198.47597"
       x="159.80539"
       y="93.755623"
       rx="26.337" />
    <rect
       style="fill:#ffff00;stroke-width:1.43631"
       id="rect846-4"
       width="251.30769"
       height="177.77164"
       x="175.51213"
       y="103.75082"
       rx="22.469505" />
    <rect
       style="fill:#666666;stroke-width:1.11901"
       id="rect1012"
       width="72.108177"
       height="44.978367"
       x="267.96338"
       y="296.51459" />
    <rect
       style="fill:#666666;stroke-width:1.17294"
       id="rect1138"
       width="129.22356"
       height="17.848558"
       x="237.97795"
       y="329.35593"
       rx="13.5" />
    <path
       style="fill:#ffff00;stroke-width:5.53701"
       id="path2142"
       sodipodi:type="arc"
       sodipodi:cx="106.97344"
       sodipodi:cy="291.7941"
       sodipodi:rx="23.560097"
       sodipodi:ry="23.837252"
       sodipodi:start="6.2302844"
       sodipodi:end="6.217177"
       sodipodi:open="true"
       sodipodi:arc-type="arc"
       d="M 130.50058,290.53367 A 23.560097,23.837252 0 0 1 108.2963,315.59374 23.560097,23.837252 0 0 1 83.454974,293.2105 23.560097,23.837252 0 0 1 105.49645,268.00373 23.560097,23.837252 0 0 1 130.48223,290.22178" />
    <path
       style="fill:#0000ff;stroke-width:5.53701"
       id="path2142-2"
       sodipodi:type="arc"
       sodipodi:cx="107.18322"
       sodipodi:cy="291.76599"
       sodipodi:rx="18.5625"
       sodipodi:ry="19.196627"
       sodipodi:start="6.2302844"
       sodipodi:end="6.217177"
       sodipodi:open="true"
       sodipodi:arc-type="arc"
       d="m 125.71975,290.75095 a 18.5625,19.196627 0 0 1 -17.49428,20.18138 18.5625,19.196627 0 0 1 -19.571952,-18.02568 18.5625,19.196627 0 0 1 17.366012,-20.29953 18.5625,19.196627 0 0 1 19.68577,17.89265" />
    <rect
       style="fill:#808080;stroke-width:1.03591"
       id="rect2308"
       width="142.78845"
       height="12.850962"
       x="36.293091"
       y="58.772125"
       rx="21.895012" />
    <rect
       style="fill:#999999;stroke-width:1.03591"
       id="rect2308-1"
       width="142.78845"
       height="12.850963"
       x="35.898399"
       y="83.575546"
       rx="21.895012" />
    <path
       style="color:#000000;fill:#0000eb;-inkscape-stroke:none"
       d="m 312.86615,150.0582 c -4.92743,0.16533 -9.80525,1.24424 -14.2832,3.35156 -4.4772,2.10696 -8.5001,5.20872 -11.57813,9.09961 -3.0788,3.89187 -5.19053,8.56305 -5.94726,13.48047 -1.32939,8.63869 1.75234,17.79675 8.0332,23.875 6.28086,6.07824 15.53453,8.85793 24.125,7.24609 l -0.26953,-1.43945 c -4.0341,0.75692 1.40573,-6.91067 -8.40085,-11.55001 -6.59957,-3.12214 -11.46185,7.56796 -14.43509,4.69063 -5.92274,-5.73168 -8.8571,-14.45347 -7.60352,-22.59961 0.71558,-4.64996 2.71959,-9.09312 5.64649,-12.79297 2.92767,-3.70082 6.77131,-6.67071 11.05273,-8.68554 8.56133,-4.02895 18.7491,-4.14024 27.78125,-1.16016 9.93227,3.27707 18.55133,10.13914 24.63477,18.69141 6.08611,8.55602 9.72282,18.75127 11.21875,29.18164 1.04341,7.27521 1.06659,14.71726 -0.33203,21.90429 -1.3983,7.18535 -4.2467,14.12096 -8.61719,19.95899 -8.17949,10.92602 -21.76497,17.55481 -35.42578,17.62695 -13.66495,0.0722 -27.19711,-6.29737 -36.12891,-16.65625 -4.8509,-5.62595 -8.3881,-12.30967 -12.07617,-18.89844 -3.68886,-6.59016 -7.64315,-13.23925 -13.2168,-18.51367 -8.48589,-8.03032 -20.51032,-12.21568 -32.13281,-10.92383 -11.62602,1.29225 -22.53432,8.11274 -28.56836,18.14649 -5.76916,9.59329 -6.87609,21.80971 -2.92383,32.2832 3.95227,10.4735 12.8548,18.91434 23.52344,22.30469 l 0.44336,-1.39649 c -4.79878,-1.52498 1.11212,-11.95317 -2.63829,-15.32444 -4.23883,-3.81033 -17.94816,-0.77682 -19.95741,-6.10134 -3.78699,-10.03552 -2.71932,-21.81959 2.80859,-31.01172 5.78239,-9.61529 16.31254,-16.20463 27.47461,-17.44531 11.1656,-1.24107 22.79506,2.80388 30.96289,10.53321 5.37771,5.08899 9.26972,11.59759 12.94531,18.16406 3.67638,6.56787 7.25118,13.34764 12.2461,19.14062 9.21509,10.68744 23.12192,17.23865 37.24609,17.16407 14.12831,-0.0746 28.11521,-6.89458 36.58984,-18.21485 4.52091,-6.03894 7.44705,-13.17876 8.88282,-20.55664 1.43543,-7.37618 1.40663,-14.97969 0.34375,-22.39062 -1.52423,-10.62766 -5.22976,-21.04504 -11.47461,-29.82422 -6.24753,-8.78294 -15.09913,-15.84392 -25.36914,-19.23242 -4.6765,-1.54297 -9.65265,-2.29033 -14.58008,-2.125 z"
       id="path2592"
       sodipodi:nodetypes="sssssccsssssssssssssssssccssssssssssssss" />
    <path
       style="color:#000000;fill:#0000ef;-inkscape-stroke:none"
       d="m 385.91693,124.23984 c -8.27922,-0.0861 -16.71186,1.74865 -23.78125,6.13671 -7.07596,4.39215 -12.648,11.46307 -14.37305,19.6504 -1.83422,8.70547 0.95805,18.21442 7.20703,24.54687 l 0.75782,-0.74805 c -5.98496,-6.06489 -8.6786,-15.24241 -6.92188,-23.58007 1.65497,-7.85473 7.03947,-14.71103 13.89258,-18.96485 6.85969,-4.2579 15.09483,-6.06093 23.20898,-5.97656 5.35479,0.0557 10.71834,0.91103 15.69922,2.81836 4.97948,1.90679 9.5741,4.88912 13.10157,8.85937 3.52582,3.9684 5.95936,8.95234 6.61523,14.19922 0.65542,5.24324 -0.52121,10.7525 -3.49805,15.09375 -1.95826,2.85583 -4.67418,5.19243 -7.78906,6.70508 -3.11487,1.51265 -6.63064,2.2015 -10.08594,1.97461 -3.45529,-0.22689 -0.54339,-8.68849 -3.43372,-10.59547 -2.89033,-1.90698 -11.58616,2.73949 -13.15417,-0.34789 l -0.94922,0.48242 c 1.65303,3.25479 4.15999,6.06384 7.20704,8.07422 3.04705,2.01038 6.61711,3.21003 10.25976,3.44922 3.64265,0.23919 7.33732,-0.48346 10.62109,-2.07813 3.28378,-1.59466 6.13868,-4.05182 8.20313,-7.0625 3.13993,-4.5791 4.36196,-10.33881 3.67578,-15.82812 -0.68572,-5.48566 -3.21688,-10.65614 -6.875,-14.77344 -3.65647,-4.11544 -8.39623,-7.18536 -13.51758,-9.14648 -5.11994,-1.96058 -10.6096,-2.8319 -16.07031,-2.88867 z"
       id="path2596"
       sodipodi:nodetypes="sssccssssssssssccssssssss" />
    <path
       style="fill:#0000ef;fill-opacity:1;stroke:#0000ef;stroke-width:4.0252;stroke-miterlimit:4;stroke-dasharray:none;stroke-opacity:1"
       id="path3355"
       sodipodi:type="arc"
       sodipodi:cx="207.28256"
       sodipodi:cy="218.33791"
       sodipodi:rx="3.2127404"
       sodipodi:ry="3.2127404"
       sodipodi:start="6.2302844"
       sodipodi:end="6.217177"
       sodipodi:open="true"
       sodipodi:arc-type="arc"
       d="m 210.49081,218.16803 a 3.2127404,3.2127404 0 0 1 -3.02786,3.37755 3.2127404,3.2127404 0 0 1 -3.38745,-3.01677 3.2127404,3.2127404 0 0 1 3.00565,-3.39733 3.2127404,3.2127404 0 0 1 3.40716,2.99451" />
    <path
       style="fill:#0000ef;fill-opacity:1;stroke:#0000ef;stroke-width:4.0252;stroke-miterlimit:4;stroke-dasharray:none;stroke-opacity:1"
       id="path3355-8"
       sodipodi:type="arc"
       sodipodi:cx="399.33246"
       sodipodi:cy="140.51884"
       sodipodi:rx="3.2127404"
       sodipodi:ry="3.2127404"
       sodipodi:start="6.2302844"
       sodipodi:end="6.217177"
       sodipodi:open="true"
       sodipodi:arc-type="arc"
       d="m 402.5407,140.34897 a 3.2127404,3.2127404 0 0 1 -3.02785,3.37755 3.2127404,3.2127404 0 0 1 -3.38746,-3.01678 3.2127404,3.2127404 0 0 1 3.00566,-3.39732 3.2127404,3.2127404 0 0 1 3.40715,2.99451" />
    <path
       style="fill:#0000ef;fill-opacity:1;stroke:#0000ef;stroke-width:4.0252;stroke-miterlimit:4;stroke-dasharray:none;stroke-opacity:1"
       id="path3355-0"
       sodipodi:type="arc"
       sodipodi:cx="367.20505"
       sodipodi:cy="161.22318"
       sodipodi:rx="3.2127404"
       sodipodi:ry="3.2127404"
       sodipodi:start="6.2302844"
       sodipodi:end="6.217177"
       sodipodi:open="true"
       sodipodi:arc-type="arc"
       d="m 370.41329,161.0533 a 3.2127404,3.2127404 0 0 1 -3.02785,3.37755 3.2127404,3.2127404 0 0 1 -3.38746,-3.01678 3.2127404,3.2127404 0 0 1 3.00566,-3.39732 3.2127404,3.2127404 0 0 1 3.40715,2.99451" />
    <path
       style="fill:#0000ff;fill-opacity:1;stroke:#0000ee;stroke-width:1.265;stroke-linecap:butt;stroke-linejoin:miter;stroke-miterlimit:4;stroke-dasharray:none;stroke-opacity:1"
       d="m 283.13077,165.43287 c -3.74912,2.66948 -22.6379,3.82412 -28.06918,0.24431 -4.12913,-2.72157 -11.15261,-10.82179 -11.15261,-10.82179 0,0 11.04044,-5.63113 16.98284,-7.22113 7.29126,-1.95091 23.88163,12.75153 23.88163,12.75153 l -17.15715,-3.2063 z"
       id="path3606"
       sodipodi:nodetypes="cscsccc" />
    <path
       style="fill:#0000ff;fill-opacity:1;stroke:#0000ee;stroke-width:1.265;stroke-linecap:butt;stroke-linejoin:miter;stroke-miterlimit:4;stroke-dasharray:none;stroke-opacity:1"
       d="m 238.00562,200.51477 c 3.44745,3.04911 8.83954,21.18869 6.5793,27.2883 -1.71836,4.63722 -8.02244,13.3091 -8.02244,13.3091 0,0 -7.97977,-9.48284 -10.87115,-14.91239 -3.5477,-6.66202 7.02658,-26.145 7.02658,-26.145 l 0.75269,17.43793 z"
       id="path3606-5"
       sodipodi:nodetypes="cscsccc" />
    <path
       style="fill:#0000ff;fill-opacity:1;stroke:#0000ee;stroke-width:0.562142;stroke-linecap:butt;stroke-linejoin:miter;stroke-miterlimit:4;stroke-dasharray:none;stroke-opacity:1"
       d="m 287.60943,154.58696 c -1.92595,-0.82582 -7.41416,-7.90533 -7.65114,-10.86968 -0.18017,-2.25365 0.70333,-6.91105 0.70333,-6.91105 0,0 4.90702,2.96131 7.05417,4.89727 2.63455,2.37541 2.0668,12.32476 2.0668,12.32476 l -3.5263,-7.44071 z"
       id="path3606-6"
       sodipodi:nodetypes="cscsccc" />
    <path
       style="fill:#0000ff;fill-opacity:1;stroke:#0000ee;stroke-width:0.562142;stroke-linecap:butt;stroke-linejoin:miter;stroke-miterlimit:4;stroke-dasharray:none;stroke-opacity:1"
       d="m 278.95512,173.14329 c -0.4805,2.0397 -6.50486,8.66895 -9.38363,9.41473 -2.18859,0.56699 -6.9286,0.50179 -6.9286,0.50179 0,0 2.06859,-5.34501 3.6043,-7.79446 1.88429,-3.00547 11.78203,-4.16595 11.78203,-4.16595 l -6.71923,4.75931 z"
       id="path3606-6-7"
       sodipodi:nodetypes="cscsccc" />
    <path
       style="fill:#0000ff;fill-opacity:1;stroke:#0000ee;stroke-width:0.562142;stroke-linecap:butt;stroke-linejoin:miter;stroke-miterlimit:4;stroke-dasharray:none;stroke-opacity:1"
       d="m 215.36278,196.55526 c -2.09553,0.005 -9.94066,-4.31825 -11.33342,-6.94574 -1.05886,-1.99756 -2.09415,-6.62358 -2.09415,-6.62358 0,0 5.67892,0.77329 8.41763,1.69939 3.36039,1.13631 6.78353,10.49548 6.78353,10.49548 l -6.18718,-5.43303 z"
       id="path3606-6-3"
       sodipodi:nodetypes="cscsccc" />
    <path
       style="fill:#0000ff;fill-opacity:1;stroke:#0000ee;stroke-width:0.562142;stroke-linecap:butt;stroke-linejoin:miter;stroke-miterlimit:4;stroke-dasharray:none;stroke-opacity:1"
       d="m 371.52236,124.20603 c -0.88163,-1.90105 -0.23691,-10.83549 1.56685,-13.1998 1.37131,-1.79748 5.13983,-4.67328 5.13983,-4.67328 0,0 1.67363,5.48153 1.97833,8.35649 0.37386,3.52755 -6.69458,10.55244 -6.69458,10.55244 l 2.34601,-7.89273 z"
       id="path3606-6-9"
       sodipodi:nodetypes="cscsccc" />
    <path
       style="fill:#0000ff;fill-opacity:1;stroke:#0000ee;stroke-width:0.562142;stroke-linecap:butt;stroke-linejoin:miter;stroke-miterlimit:4;stroke-dasharray:none;stroke-opacity:1"
       d="m 373.51279,128.94607 c 2.09225,0.1173 9.67081,4.89279 10.90736,7.59731 0.9401,2.05612 1.70281,6.73482 1.70281,6.73482 0,0 -5.62391,-1.10442 -8.30372,-2.18925 -3.2881,-1.33109 -6.15747,-10.8746 -6.15747,-10.8746 l 5.85851,5.78591 z"
       id="path3606-6-9-6"
       sodipodi:nodetypes="cscsccc" />
  </g>
</svg>
